<?xml version="1.0" encoding="iso-8859-1"?>
<!-- Uploaded to: SVG Repo, www.svgrepo.com, Generator: SVG Repo Mixer Tools -->
<svg height="800px" width="800px" version="1.1" id="Layer_1" xmlns="http://www.w3.org/2000/svg" xmlns:xlink="http://www.w3.org/1999/xlink" 
	 viewBox="0 0 508 508" xml:space="preserve">
<circle style="fill:#324A5E;" cx="254" cy="254" r="254"/>
<circle style="fill:#FFFFFF;" cx="254" cy="254" r="121.6"/>
<path style="fill:#FFD05B;" d="M92,254c0-89.6,72.4-162,162-162c44.8,0,85.2,18,114.4,47.6L398,110c-36.8-36.8-87.6-59.6-144-59.6
	C141.6,50.4,50.4,141.6,50.4,254H25.6l45.6,45.6l45.6-45.6H92z"/>
<path style="fill:#84DBFF;" d="M436.8,208.4L391.2,254H416c0,89.6-72.4,162-162,162c-44.8,0-85.2-18-114.4-47.6L110,398
	c36.8,36.8,87.6,59.6,144,59.6c112.4,0,203.6-91.2,203.6-203.6h24.8L436.8,208.4z"/>
<path style="fill:#FF7058;" d="M290.4,264c6.4,0,11.2-5.2,11.2-11.2c0-6.4-5.2-11.2-11.2-11.2h-13.6l24.8-38.8
	c3.2-5.2,2-12.4-3.2-15.6c-5.2-3.2-12.4-2-15.6,3.2L254,234.8l-28.4-44.4c-3.2-5.2-10.4-6.8-15.6-3.2c-5.2,3.2-6.8,10.4-3.2,15.6
	l24.8,38.8H218c-6.4,0-11.2,5.2-11.2,11.2c0,6.4,5.2,11.2,11.2,11.2h24.8v11.2H218c-6.4,0-11.2,5.2-11.2,11.2
	c0,6.4,5.2,11.2,11.2,11.2h24.8v14c0,6.4,5.2,11.2,11.2,11.2c6.4,0,11.2-5.2,11.2-11.2v-14H290c6.4,0,11.2-5.2,11.2-11.2
	c0-6.4-5.2-11.2-11.2-11.2h-24.8V264H290.4z"/>
</svg>